<?xml version="1.0" encoding="UTF-8" standalone="no"?>
<!DOCTYPE svg PUBLIC "-//W3C//DTD SVG 1.1//EN"
 "http://www.w3.org/Graphics/SVG/1.1/DTD/svg11.dtd">
<!-- Generated by graphviz version 15.1.1 (20260805.0921)
 -->
<!-- Title: start_server Pages: 1 -->
<svg width="181pt" height="66pt"
 viewBox="0.00 0.00 181.00 66.00" xmlns="http://www.w3.org/2000/svg" xmlns:xlink="http://www.w3.org/1999/xlink">
<g id="graph0" class="graph" transform="scale(1 1) rotate(0) translate(4 62)">
<title>start_server</title>
<!-- Node1 -->
<g id="Node000001" class="node">
<title>Node1</title>
<g id="a_Node000001"><a xlink:title=" ">
<polygon fill="#999999" stroke="#666666" points="67.75,-39 0,-39 0,-19 67.75,-19 67.75,-39"/>
<text xml:space="preserve" text-anchor="middle" x="33.88" y="-25.5" font-family="Helvetica,sans-Serif" font-size="10.00">start_server</text>
</a>
</g>
</g>
<!-- Node2 -->
<g id="Node000002" class="node">
<title>Node2</title>
<g id="a_Node000002"><a xlink:href="app_8c.html#adb6a96de937f2cf239b73792fd3e649c" target="_top" xlink:title=" ">
<polygon fill="white" stroke="#666666" points="173,-58 103.75,-58 103.75,-38 173,-38 173,-58"/>
<text xml:space="preserve" text-anchor="middle" x="138.38" y="-44.5" font-family="Helvetica,sans-Serif" font-size="10.00">root_handler</text>
</a>
</g>
</g>
<!-- Node1&#45;&gt;Node2 -->
<g id="edge1_Node000001_Node000002" class="edge">
<title>Node1&#45;&gt;Node2</title>
<g id="a_edge1_Node000001_Node000002"><a xlink:title=" ">
<path fill="none" stroke="#63b8ff" d="M68.15,-35.17C75.86,-36.6 84.19,-38.14 92.31,-39.65"/>
<polygon fill="#63b8ff" stroke="#63b8ff" points="91.6,-43.07 102.07,-41.46 92.88,-36.19 91.6,-43.07"/>
</a>
</g>
</g>
<!-- Node3 -->
<g id="Node000003" class="node">
<title>Node3</title>
<g id="a_Node000003"><a xlink:href="app_8c.html#abc27e4e0bae8202401de3ae3400eeb65" target="_top" xlink:title=" ">
<polygon fill="white" stroke="#666666" points="171.12,-20 105.62,-20 105.62,0 171.12,0 171.12,-20"/>
<text xml:space="preserve" text-anchor="middle" x="138.38" y="-6.5" font-family="Helvetica,sans-Serif" font-size="10.00">ws_handler</text>
</a>
</g>
</g>
<!-- Node1&#45;&gt;Node3 -->
<g id="edge2_Node000001_Node000003" class="edge">
<title>Node1&#45;&gt;Node3</title>
<g id="a_edge2_Node000001_Node000003"><a xlink:title=" ">
<path fill="none" stroke="#63b8ff" d="M68.15,-22.83C76.45,-21.29 85.46,-19.62 94.15,-18.01"/>
<polygon fill="#63b8ff" stroke="#63b8ff" points="94.63,-21.48 103.82,-16.22 93.35,-14.6 94.63,-21.48"/>
</a>
</g>
</g>
</g>
</svg>
